# xmcd
#
# Track frame offsets: 
#        150
#        26777
#        87787
#        100870
#        114187
#        136992
#        163612
#        196837
#        211972
#        237990
#        254247
#        268672
#        289467
#
# Disc length: 4440 seconds
#
# Revision: 0
# Processed by: cddbd v1.4PL0 Copyright (c) Steve Scherf et al.
# Submitted via: ExactAudioCopy v0.90b4
#
DISCID=bd11560d
DTITLE=Van Morrison - Evrey Night About This Time CD2
DYEAR=1997
DGENRE=Blues
TTITLE0=The Healing Game
TTITLE1=See Me Through,Soldier of Fortune,Thank You,Burning  Ground
TTITLE2=Baby Please Don't Go
TTITLE3=TV Mama
TTITLE4=A Change Is Gonna Come
TTITLE5=Help Me
TTITLE6=Take Your Hand Out Of My Pocket,Little Red Rooster,Early In Th
TTITLE6=e Morning
TTITLE7=Fever
TTITLE8=Georgia On My Mind
TTITLE9=Shake Rattle and Roll
TTITLE10=I Put A Spell On You
TTITLE11=It Fills You Up
TTITLE12=It's A Man's World/When The Clock Strikes Twelve
EXTD=
EXTT0=
EXTT1=
EXTT2=
EXTT3=
EXTT4=
EXTT5=
EXTT6=
EXTT7=
EXTT8=
EXTT9=
EXTT10=
EXTT11=
EXTT12=
PLAYORDER=
